<?xml version="1.0" encoding="UTF-8"?>
<svg width="12px" height="12px" viewBox="0 0 12 12" version="1.1" xmlns="http://www.w3.org/2000/svg" xmlns:xlink="http://www.w3.org/1999/xlink">
    <!-- Generator: Sketch 48.2 (47327) - http://www.bohemiancoding.com/sketch -->
    <title>remove</title>
    <desc>Created with Sketch.</desc>
    <defs>
        <path d="M9,7 L15,7 L15,9 L9,9 L9,15 L7,15 L7,9 L1,9 L1,7 L7,7 L7,1 L9,1 L9,7 Z" id="path-1"></path>
    </defs>
    <g id="Artboard" stroke="none" stroke-width="1" fill="none" fill-rule="evenodd" transform="translate(-2.000000, -2.000000)">
        <g id="Combined-Shape" transform="translate(8.000000, 8.000000) rotate(-45.000000) translate(-8.000000, -8.000000) ">
            <use fill="#D8D8D8" fill-rule="evenodd" xlink:href="#path-1"></use>
            <path stroke="#979797" stroke-width="1" d="M8.5,1.5 L7.5,1.5 L7.5,7.5 L1.5,7.5 L1.5,8.5 L7.5,8.5 L7.5,14.5 L8.5,14.5 L8.5,8.5 L14.5,8.5 L14.5,7.5 L8.5,7.5 L8.5,1.5 Z"></path>
        </g>
    </g>
</svg>