<?xml version="1.0" encoding="UTF-8"?>
<svg width="28px" height="28px" viewBox="0 0 28 28" version="1.1" xmlns="http://www.w3.org/2000/svg" xmlns:xlink="http://www.w3.org/1999/xlink">
    <!-- Generator: Sketch 48.2 (47327) - http://www.bohemiancoding.com/sketch -->
    <title>Group</title>
    <desc>Created with Sketch.</desc>
    <defs></defs>
    <g id="Artboard" stroke="none" stroke-width="1" fill="none" fill-rule="evenodd" opacity="0.504472373">
        <g id="Group" transform="translate(-2.000000, -3.000000)" fill="#FFFFFF" fill-rule="nonzero">
            <g id="Group-2" transform="translate(2.000000, 3.000000)">
                <path d="M9.17816667,11.7395833 C9.82216667,11.7395833 10.3448333,11.2169167 10.3448333,10.5729167 L10.3448333,6.02291667 C10.3448333,3.98883333 11.99975,2.33333333 14.0338333,2.33333333 C16.0679167,2.33333333 17.7234167,3.98883333 17.7234167,6.02291667 L17.7234167,10.5729167 C17.7234167,11.2169167 18.2455,11.7395833 18.8900833,11.7395833 C19.5340833,11.7395833 20.05675,11.2169167 20.05675,10.5729167 L20.05675,6.02291667 C20.0573333,2.702 17.3553333,0 14.0338333,0 C10.7135,0 8.0115,2.702 8.0115,6.02291667 L8.0115,10.5729167 C8.0115,11.2169167 8.53416667,11.7395833 9.17816667,11.7395833 Z" id="Shape"></path>
                <path d="M21.224,9.11808333 L21.224,10.5729167 C21.224,11.85975 20.1775,12.90625 18.8906667,12.90625 C17.6038333,12.90625 16.5573333,11.85975 16.5573333,10.5729167 L16.5573333,9.11808333 L11.5120833,9.11808333 L11.5120833,10.5729167 C11.5120833,11.85975 10.4655833,12.90625 9.17875,12.90625 C7.89191667,12.90625 6.84541667,11.85975 6.84541667,10.5729167 L6.84541667,9.11808333 L0.583333333,9.11808333 C0.261333333,9.11808333 0.0624166667,9.37183333 0.138833333,9.6845 L4.221,26.30775 C4.46716667,27.24225 5.45066667,28 6.41666667,28 L21.5833333,28 C22.5505,28 23.5328333,27.24225 23.7801667,26.30775 L27.8611667,9.6845 C27.9375833,9.37125 27.73925,9.11808333 27.4166667,9.11808333 L21.224,9.11808333 Z" id="Shape"></path>
            </g>
        </g>
    </g>
</svg>