<?xml version="1.0" encoding="UTF-8"?>
<svg width="28px" height="28px" viewBox="0 0 28 28" version="1.1" xmlns="http://www.w3.org/2000/svg" xmlns:xlink="http://www.w3.org/1999/xlink">
    <!-- Generator: Sketch 48.2 (47327) - http://www.bohemiancoding.com/sketch -->
    <title>Group 2</title>
    <desc>Created with Sketch.</desc>
    <defs></defs>
    <g id="Artboard-2" stroke="none" stroke-width="1" fill="none" fill-rule="evenodd" transform="translate(-110.000000, -50.000000)">
        <g id="Group-2" transform="translate(102.000000, 46.000000)" fill="#0386A2" fill-rule="nonzero">
            <path d="M17.1781667,15.7395833 C17.8221667,15.7395833 18.3448333,15.2169167 18.3448333,14.5729167 L18.3448333,10.0229167 C18.3448333,7.98883333 19.99975,6.33333333 22.0338333,6.33333333 C24.0679167,6.33333333 25.7234167,7.98883333 25.7234167,10.0229167 L25.7234167,14.5729167 C25.7234167,15.2169167 26.2455,15.7395833 26.8900833,15.7395833 C27.5340833,15.7395833 28.05675,15.2169167 28.05675,14.5729167 L28.05675,10.0229167 C28.0573333,6.702 25.3553333,4 22.0338333,4 C18.7135,4 16.0115,6.702 16.0115,10.0229167 L16.0115,14.5729167 C16.0115,15.2169167 16.5341667,15.7395833 17.1781667,15.7395833 Z" id="Shape"></path>
            <path d="M29.224,13.1180833 L29.224,14.5729167 C29.224,15.85975 28.1775,16.90625 26.8906667,16.90625 C25.6038333,16.90625 24.5573333,15.85975 24.5573333,14.5729167 L24.5573333,13.1180833 L19.5120833,13.1180833 L19.5120833,14.5729167 C19.5120833,15.85975 18.4655833,16.90625 17.17875,16.90625 C15.8919167,16.90625 14.8454167,15.85975 14.8454167,14.5729167 L14.8454167,13.1180833 L8.58333333,13.1180833 C8.26133333,13.1180833 8.06241667,13.3718333 8.13883333,13.6845 L12.221,30.30775 C12.4671667,31.24225 13.4506667,32 14.4166667,32 L29.5833333,32 C30.5505,32 31.5328333,31.24225 31.7801667,30.30775 L35.8611667,13.6845 C35.9375833,13.37125 35.73925,13.1180833 35.4166667,13.1180833 L29.224,13.1180833 Z" id="Shape"></path>
        </g>
    </g>
</svg>